<svg width="54" height="55" viewBox="0 0 54 55" fill="none" xmlns="http://www.w3.org/2000/svg">
<g clip-path="url(#clip0)">
<path d="M43.8137 44.8103H7.39154C6.51784 44.8103 5.80951 44.0888 5.80951 43.199V1.61133C5.80951 0.721445 6.51784 0 7.39154 0H43.8137C44.6874 0 45.3957 0.721445 45.3957 1.61133V43.199C45.3957 44.0888 44.6874 44.8103 43.8137 44.8103Z" fill="#D3EFFB"/>
<path d="M43.8681 0H42.5756V40.3819C42.5756 41.2412 41.8916 41.9378 41.048 41.9378H5.80951V43.2543C5.80951 44.1135 6.49347 44.8102 7.33712 44.8102H43.8681C44.7118 44.8102 45.3957 44.1135 45.3957 43.2543V1.5559C45.3957 0.696631 44.7118 0 43.8681 0V0Z" fill="#B1E4F9"/>
<path d="M39.034 33.4863H37.9356L20.9045 32.0652L11.1168 23.4726V10.3691C11.1168 9.77585 11.589 9.29492 12.1715 9.29492H39.034C39.6165 9.29492 40.0887 9.77585 40.0887 10.3691V32.4121C40.0887 33.0054 39.6164 33.4863 39.034 33.4863Z" fill="#3D4FC3"/>
<path d="M12.2242 39.1744C12.8359 39.1744 13.3318 38.6694 13.3318 38.0464C13.3318 37.4234 12.8359 36.9183 12.2242 36.9183C11.6126 36.9183 11.1167 37.4234 11.1167 38.0464C11.1167 38.6694 11.6126 39.1744 12.2242 39.1744Z" fill="#90D8F9"/>
<path d="M16.138 39.1744C16.7497 39.1744 17.2455 38.6694 17.2455 38.0464C17.2455 37.4234 16.7497 36.9183 16.138 36.9183C15.5263 36.9183 15.0305 37.4234 15.0305 38.0464C15.0305 38.6694 15.5263 39.1744 16.138 39.1744Z" fill="#90D8F9"/>
<path d="M20.0518 39.1744C20.6635 39.1744 21.1593 38.6694 21.1593 38.0464C21.1593 37.4234 20.6635 36.9183 20.0518 36.9183C19.4401 36.9183 18.9443 37.4234 18.9443 38.0464C18.9443 38.6694 19.4401 39.1744 20.0518 39.1744Z" fill="#90D8F9"/>
<path d="M28.6437 5.88876H25.2178C24.781 5.88876 24.4271 5.52825 24.4271 5.08342C24.4271 4.63858 24.781 4.27808 25.2178 4.27808H28.6437C29.0804 4.27808 29.4344 4.63858 29.4344 5.08342C29.4344 5.52825 29.0803 5.88876 28.6437 5.88876Z" fill="#90D8F9"/>
<path d="M21.1593 5.88876H11.8025C11.3658 5.88876 11.0118 5.52825 11.0118 5.08342C11.0118 4.63858 11.3658 4.27808 11.8025 4.27808H21.1593C21.5961 4.27808 21.95 4.63858 21.95 5.08342C21.95 5.52825 21.5961 5.88876 21.1593 5.88876Z" fill="#90D8F9"/>
<path d="M12.1709 33.4864H37.9355L27.8532 23.2172C27.4414 22.798 26.774 22.798 26.3623 23.2172L24.1505 25.47C23.9446 25.6797 23.6109 25.6797 23.405 25.47L17.0257 18.9726C16.614 18.5532 15.9466 18.5533 15.5348 18.9726L11.1166 23.4726V32.4127C11.1167 33.0056 11.5887 33.4864 12.1709 33.4864Z" fill="#5766CB"/>
<path d="M32.3005 18.98C33.4105 18.98 34.3102 18.0635 34.3102 16.933C34.3102 15.8025 33.4105 14.8861 32.3005 14.8861C31.1906 14.8861 30.2908 15.8025 30.2908 16.933C30.2908 18.0635 31.1906 18.98 32.3005 18.98Z" fill="#5766CB"/>
<path d="M40.0885 55C44.563 55 48.1903 51.3055 48.1903 46.7482C48.1903 42.1908 44.563 38.4963 40.0885 38.4963C35.6141 38.4963 31.9868 42.1908 31.9868 46.7482C31.9868 51.3055 35.6141 55 40.0885 55Z" fill="#FFD064"/>
<path d="M44.2318 39.657C44.9549 40.8919 45.3714 42.3346 45.3714 43.8768C45.3714 48.4342 41.7441 52.1287 37.2696 52.1287C35.7554 52.1287 34.3389 51.7044 33.1265 50.968C34.54 53.3823 37.1284 55 40.0887 55C44.5632 55 48.1905 51.3056 48.1905 46.7482C48.1905 43.7331 46.6021 41.0969 44.2318 39.657Z" fill="#FFC250"/>
<path d="M43.3893 45.966H40.8792V43.4095C40.8792 42.9647 40.5253 42.6041 40.0885 42.6041C39.6518 42.6041 39.2978 42.9646 39.2978 43.4095V45.966H36.7878C36.351 45.966 35.9971 46.3265 35.9971 46.7713C35.9971 47.2161 36.351 47.5767 36.7878 47.5767H39.2978V50.1332C39.2978 50.5779 39.6518 50.9386 40.0885 50.9386C40.5253 50.9386 40.8792 50.5781 40.8792 50.1332V47.5767H43.3893C43.826 47.5767 44.18 47.2162 44.18 46.7713C44.18 46.3265 43.826 45.966 43.3893 45.966Z" fill="#D56617"/>
</g>
<defs>
<clipPath id="clip0">
<rect width="54" height="55" fill="white"/>
</clipPath>
</defs>
</svg>
