<svg width="25" height="25" viewBox="0 0 25 25" fill="none" xmlns="http://www.w3.org/2000/svg">
<path d="M12.5 0C5.60722 0 0 5.60722 0 12.5C0 19.3928 5.60722 25 12.5 25C19.3928 25 25 19.3928 25 12.5C25 5.60722 19.3928 0 12.5 0Z" fill="#2196F3"/>
<path d="M18.8354 9.85117L12.0646 16.6219C11.8614 16.825 11.5948 16.9272 11.3281 16.9272C11.0615 16.9272 10.7948 16.825 10.5917 16.6219L7.20634 13.2365C6.79893 12.8293 6.79893 12.1709 7.20634 11.7637C7.61356 11.3563 8.27179 11.3563 8.6792 11.7637L11.3281 14.4126L17.3626 8.37831C17.7698 7.9709 18.428 7.9709 18.8354 8.37831C19.2427 8.78553 19.2427 9.44376 18.8354 9.85117Z" fill="#FAFAFA"/>
</svg>
