<svg width="54" height="54" viewBox="0 0 54 54" fill="none" xmlns="http://www.w3.org/2000/svg">
<g clip-path="url(#clip0)">
<path d="M48.1763 44.8648L5.82449 44.8661C4.61835 44.8661 3.64066 43.8884 3.64055 42.6822L3.63971 14.1287C3.63971 12.9225 4.6174 11.9449 5.82344 11.9447L48.1753 11.9435C49.3814 11.9435 50.3591 12.9212 50.3592 14.1273L50.36 42.6809C50.3601 43.887 49.3825 44.8648 48.1763 44.8648Z" fill="#4380A0"/>
<path d="M50.3601 42.6702C50.3601 43.8818 49.3877 44.865 48.1871 44.865H44.9276C46.1281 44.865 47.1006 43.8818 47.1006 42.6702L47.0996 14.1384C47.0996 12.9279 46.1304 11.9469 44.932 11.9436H48.1861C49.3867 11.9436 50.3592 12.9258 50.3592 14.1384L50.3601 42.6702Z" fill="#3B7191"/>
<path d="M47.1006 40.8721C47.1006 41.1052 46.9117 41.2942 46.6787 41.2942H43.8411L7.32241 41.2953C7.08942 41.2953 6.90053 41.1063 6.90053 40.8732L6.89948 15.6281C6.89948 15.395 7.08837 15.206 7.32135 15.206L43.84 15.205H46.6778C46.9107 15.205 47.0996 15.394 47.0996 15.627L47.1006 40.8721Z" fill="#BBF7FF"/>
<path d="M46.6787 41.2942H43.841L43.84 15.2048H46.6777C46.9107 15.2048 47.0996 15.3938 47.0996 15.6269L47.1006 40.872C47.1005 41.1052 46.9117 41.2942 46.6787 41.2942Z" fill="#8BF0FF"/>
<path d="M52.4785 49.9922H1.52149C0.681223 49.9922 0 49.311 0 48.4707V46.0783C0 45.238 0.681223 44.5568 1.52149 44.5568H52.4784C53.3187 44.5568 53.9999 45.238 53.9999 46.0783V48.4707C54 49.311 53.3188 49.9922 52.4785 49.9922Z" fill="#A9DBF5"/>
<path d="M52.4788 44.5566H49.2193C50.0594 44.5566 50.7405 45.2381 50.7405 46.0786V48.4702C50.7405 49.3107 50.0595 49.9921 49.2193 49.9921H52.4788C53.3189 49.9921 54 49.3106 54 48.4702V46.0786C54 45.2381 53.319 44.5566 52.4788 44.5566Z" fill="#88C3E0"/>
<path d="M27 29.6633H11.637C11.3008 29.6633 11.0281 29.3907 11.0281 29.0544V10.1322C11.0281 9.79595 11.3008 9.52332 11.637 9.52332H27V29.6633Z" fill="#F75632"/>
<path d="M42.363 29.6633H27V9.52332H42.363C42.6992 9.52332 42.9719 9.79595 42.9719 10.1322V29.0544C42.9719 29.3907 42.6992 29.6633 42.363 29.6633Z" fill="#E33629"/>
<path d="M27 29.6634L14.21 25.2381C13.9648 25.1532 13.8003 24.9222 13.8003 24.6627V4.61717C13.8003 4.19867 14.2127 3.90483 14.6081 4.04162L27 8.32935V29.6634Z" fill="#F3F3F3"/>
<path d="M27 29.6634L39.79 25.2381C40.0352 25.1532 40.1997 24.9222 40.1997 24.6627V4.61717C40.1997 4.19867 39.7873 3.90483 39.3919 4.04162L27 8.32935V29.6634Z" fill="#E4E4E4"/>
<path d="M30.4515 47.1657H23.5485C22.8745 47.1657 22.3279 46.6193 22.3279 45.9451V44.5566H31.6721V45.9451C31.6721 46.6193 31.1255 47.1657 30.4515 47.1657Z" fill="#88C3E0"/>
<path d="M37.7034 32.8279H16.2966C15.8598 32.8279 15.5056 33.1822 15.5056 33.6193C15.5056 34.0565 15.8598 34.4108 16.2966 34.4108H37.7035C38.1405 34.4108 38.4945 34.0565 38.4945 33.6193C38.4945 33.1822 38.1404 32.8279 37.7034 32.8279Z" fill="#4380A0"/>
<path d="M30.1795 36.2865H16.2966C15.8598 36.2865 15.5056 36.6408 15.5056 37.0779C15.5056 37.5151 15.8598 37.8694 16.2966 37.8694H30.1795C30.6164 37.8694 30.9705 37.5151 30.9705 37.0779C30.9705 36.6408 30.6163 36.2865 30.1795 36.2865Z" fill="#4380A0"/>
</g>
<defs>
<clipPath id="clip0">
<rect width="54" height="54" fill="white"/>
</clipPath>
</defs>
</svg>
