<svg width="54" height="55" viewBox="0 0 54 55" fill="none" xmlns="http://www.w3.org/2000/svg">
<g clip-path="url(#clip0)">
<path d="M39.2976 52.8133C39.2976 54.021 38.3364 55 37.1507 55H7.80183C6.61615 55 5.65491 54.021 5.65491 52.8133V2.18668C5.65491 0.979043 6.61615 0 7.80183 0H37.1507C38.3364 0 39.2976 0.979043 39.2976 2.18668V52.8133Z" fill="#26457D"/>
<path d="M39.2976 2.18668C39.2976 0.979043 38.3364 0 37.1507 0H34.6703C35.856 0 36.8172 0.979043 36.8172 2.18668V52.8134C36.8172 54.0211 35.856 55.0001 34.6703 55.0001H37.1507C38.3364 55.0001 39.2976 54.0211 39.2976 52.8134V2.18668Z" fill="#21386B"/>
<path d="M24.7416 52.8239H20.211C19.7609 52.8239 19.3959 52.4523 19.3959 51.9937C19.3959 51.5351 19.7608 51.1636 20.211 51.1636H24.7416C25.1918 51.1636 25.5567 51.5351 25.5567 51.9937C25.5567 52.4523 25.1918 52.8239 24.7416 52.8239Z" fill="#21386B"/>
<path d="M9.61462 3.8739C9.52834 3.8739 9.45831 3.94512 9.45831 4.0331V48.7535C9.45831 48.8413 9.52824 48.9127 9.61462 48.9127H35.3378C35.4241 48.9127 35.4941 48.8415 35.4941 48.7535C35.4941 45.4551 35.4941 6.8323 35.4941 4.0331C35.4941 3.94523 35.4242 3.8739 35.3378 3.8739H9.61462Z" fill="#F9F6F6"/>
<path d="M32.8548 3.87376V48.9124H35.338C35.4242 48.9124 35.4943 48.8412 35.4943 48.7532C35.4943 45.4547 35.4943 6.83206 35.4943 4.03286C35.4943 3.94499 35.4243 3.87366 35.338 3.87366H32.8548V3.87376Z" fill="#DDDAEC"/>
<path d="M48.3451 29.8121V29.7653C48.3451 28.7653 47.549 27.9547 46.5672 27.955L43.0461 27.9561C42.0206 27.9564 41.2303 27.0357 41.3674 26.0007L41.975 21.413C42.1587 20.0257 41.0995 18.7915 39.7251 18.7915C38.8551 18.7915 38.173 19.5529 38.2527 20.4354C38.275 20.6832 38.2367 20.9329 38.1412 21.162L35.9476 26.4219C35.5595 27.3525 34.663 27.9567 33.6704 27.9567H29.9011V39.7004L32.8566 41.625C34.1093 42.4408 35.5652 42.8743 37.0522 42.8743H45.5363C46.5475 42.8743 47.3672 42.0394 47.3672 41.0096C47.3672 39.9797 46.5475 39.1448 45.5363 39.1448H46.5144C47.5255 39.1448 48.3452 38.31 48.3452 37.2801C48.3452 36.2502 47.5255 35.4154 46.5144 35.4154C47.5255 35.4154 48.3452 34.5805 48.3452 33.5506C48.3452 32.5225 47.5282 31.689 46.5194 31.6862C47.5283 31.6834 48.3451 30.8497 48.3451 29.8121Z" fill="#F1D0A5"/>
<path d="M39.8719 21.413L39.2642 26.0007C39.1271 27.0357 39.9175 27.9564 40.9429 27.9561L43.0349 27.9554C42.0149 27.9491 41.2306 27.0319 41.3671 26.0006L41.9747 21.4129C42.1585 20.0256 41.0993 18.7914 39.7249 18.7914C39.3721 18.7914 39.0515 18.918 38.7988 19.1258C39.5407 19.5851 39.9977 20.463 39.8719 21.413Z" fill="#F1B986"/>
<path d="M48.3451 29.8122V29.7654C48.3451 28.7654 47.549 27.9548 46.5672 27.9551L44.4762 27.9557C45.4524 27.9621 46.2421 28.7696 46.2421 29.7654V29.8122C46.2421 30.8498 45.4254 31.6835 44.4164 31.6863C45.4252 31.6891 46.2421 32.5225 46.2421 33.5507C46.2421 34.5805 45.4224 35.4154 44.4113 35.4154C45.4224 35.4154 46.2421 36.2503 46.2421 37.2802C46.2421 38.31 45.4224 39.1449 44.4113 39.1449H43.4333C44.4444 39.1449 45.2641 39.9798 45.2641 41.0096C45.2641 42.0395 44.4444 42.8744 43.4333 42.8744H45.5362C46.5474 42.8744 47.3671 42.0395 47.3671 41.0096C47.3671 39.9798 46.5474 39.1449 45.5362 39.1449H46.5142C47.5254 39.1449 48.3451 38.31 48.3451 37.2802C48.3451 36.2503 47.5254 35.4154 46.5142 35.4154C47.5254 35.4154 48.3451 34.5805 48.3451 33.5507C48.3451 32.5225 47.5281 31.6891 46.5193 31.6863C47.5283 31.6835 48.3451 30.8498 48.3451 29.8122Z" fill="#F1B986"/>
<path d="M46.5143 32.516H42.0554C41.6052 32.516 41.2403 32.1445 41.2403 31.6859C41.2403 31.2274 41.6051 30.8557 42.0554 30.8557H46.5143C46.9644 30.8557 47.3293 31.2273 47.3293 31.6859C47.3292 32.1445 46.9644 32.516 46.5143 32.516Z" fill="#F1B986"/>
<path d="M46.5143 39.9749H42.0554C41.6052 39.9749 41.2403 39.6033 41.2403 39.1447C41.2403 38.6861 41.6051 38.3146 42.0554 38.3146H46.5143C46.9644 38.3146 47.3293 38.6861 47.3293 39.1447C47.3293 39.6033 46.9644 39.9749 46.5143 39.9749Z" fill="#F1B986"/>
<path d="M46.5143 36.2455H42.0554C41.6052 36.2455 41.2403 35.8739 41.2403 35.4154C41.2403 34.9569 41.6051 34.5852 42.0554 34.5852H46.5143C46.9644 34.5852 47.3293 34.9568 47.3293 35.4154C47.3292 35.8739 46.9644 36.2455 46.5143 36.2455Z" fill="#F1B986"/>
<path d="M29.901 26.8887V40.7682C29.901 41.3719 29.322 41.8613 28.6077 41.8613H24.3551C23.6409 41.8613 23.0619 41.3719 23.0619 40.7682V26.8887C23.0619 26.2849 23.6409 25.7955 24.3551 25.7955H28.6077C29.322 25.7955 29.901 26.2849 29.901 26.8887Z" fill="#9DC6FB"/>
<path d="M28.6077 25.7955H26.0828C26.7971 25.7955 27.3761 26.2849 27.3761 26.8887V40.7682C27.3761 41.3719 26.7971 41.8613 26.0828 41.8613H28.6077C29.322 41.8613 29.901 41.3719 29.901 40.7682V26.8887C29.901 26.2849 29.322 25.7955 28.6077 25.7955Z" fill="#80B4FB"/>
<path d="M31.9279 14.2389H17.3715C16.9213 14.2389 16.5564 13.8674 16.5564 13.4088C16.5564 12.9503 16.9212 12.5786 17.3715 12.5786H31.9278C32.378 12.5786 32.7429 12.9502 32.7429 13.4088C32.7429 13.8672 32.3781 14.2389 31.9279 14.2389Z" fill="#21386B"/>
<path d="M31.9279 18.964H13.0248C12.5746 18.964 12.2097 18.5925 12.2097 18.1339C12.2097 17.6754 12.5745 17.3037 13.0248 17.3037H31.9279C32.3781 17.3037 32.743 17.6753 32.743 18.1339C32.7429 18.5923 32.3781 18.964 31.9279 18.964Z" fill="#21386B"/>
</g>
<defs>
<clipPath id="clip0">
<rect width="54" height="55" fill="white"/>
</clipPath>
</defs>
</svg>
