<svg width="54" height="54" viewBox="0 0 54 54" fill="none" xmlns="http://www.w3.org/2000/svg">
<g clip-path="url(#clip0)">
<path d="M39.375 24.75C31.311 24.75 24.75 31.311 24.75 39.375C24.75 47.439 31.311 54 39.375 54C47.439 54 54 47.439 54 39.375C54 31.311 47.439 24.75 39.375 24.75Z" fill="#4CAF50"/>
<path d="M45.693 43.317L40.6305 48.942C40.3087 49.2975 39.8542 49.5 39.375 49.5C38.8957 49.5 38.4412 49.2975 38.1195 48.942L33.057 43.317C32.6115 42.8198 32.499 42.1087 32.769 41.5012C33.0435 40.8915 33.6465 40.5 34.3125 40.5H37.125V31.5C37.125 30.2557 38.1307 29.25 39.375 29.25C40.6192 29.25 41.625 30.2557 41.625 31.5V40.5H44.4375C45.1035 40.5 45.7065 40.8915 45.981 41.5012C46.251 42.1087 46.1385 42.8198 45.693 43.317Z" fill="white"/>
<path d="M39.375 24.75C31.311 24.75 24.75 31.311 24.75 39.375C24.75 47.439 31.311 54 39.375 54V49.5C38.8957 49.5 38.4412 49.2975 38.1195 48.942L33.057 43.317C32.6115 42.8198 32.499 42.1088 32.769 41.5013C33.0435 40.8915 33.6465 40.5 34.3125 40.5H37.125V31.5C37.125 30.2558 38.1307 29.25 39.375 29.25V24.75Z" fill="#429846"/>
<path d="M39.375 29.25C38.1307 29.25 37.125 30.2557 37.125 31.5V40.5H34.3125C33.6465 40.5 33.0435 40.8915 32.769 41.5012C32.499 42.1087 32.6115 42.8198 33.057 43.317L38.1195 48.942C38.4412 49.2975 38.8957 49.5 39.375 49.5V29.25Z" fill="#DEDEDE"/>
<path d="M0 23.6251V32.6251C0 38.0926 14.13 38.2501 15.75 38.2501C16.2675 38.2501 18.09 38.2276 20.295 38.0251C20.5425 34.5601 21.7148 31.3403 23.5575 28.6178C24.9098 26.6603 26.5725 24.9728 28.53 23.6228H0V23.6251Z" fill="#FFC107"/>
<path d="M0 14.625V23.625C0 29.0925 14.13 29.25 15.75 29.25C16.515 29.25 20.025 29.205 23.5575 28.62C24.9098 26.6625 26.5725 24.975 28.53 23.625C29.4525 22.9725 30.4448 22.41 31.5 21.96V14.625H0Z" fill="#FFD54F"/>
<path d="M15.75 20.25C14.1368 20.25 0 20.0925 0 14.625V5.625H31.5V14.625C31.5 20.0925 17.3633 20.25 15.75 20.25Z" fill="#FFC107"/>
<path d="M15.75 11.25C14.1368 11.25 0 11.0925 0 5.625C0 0.1575 14.1368 0 15.75 0C17.3633 0 31.5 0.1575 31.5 5.625C31.5 11.0925 17.3633 11.25 15.75 11.25Z" fill="#FFD54F"/>
<path d="M0 23.625V32.625C0 38.0925 14.13 38.25 15.75 38.25V29.25C14.13 29.25 0 29.0925 0 23.625Z" fill="#DEA806"/>
<path d="M0 14.625V23.625C0 29.0925 14.13 29.25 15.75 29.25V20.25C14.1368 20.25 0 20.0925 0 14.625Z" fill="#DEB945"/>
<path d="M0 5.625V14.625C0 20.0925 14.1368 20.25 15.75 20.25V11.25C14.1368 11.25 0 11.0925 0 5.625Z" fill="#DEA806"/>
<path d="M15.75 0C14.1368 0 0 0.1575 0 5.625C0 11.0925 14.1368 11.25 15.75 11.25V0Z" fill="#DEB945"/>
</g>
<defs>
<clipPath id="clip0">
<rect width="54" height="54" fill="white"/>
</clipPath>
</defs>
</svg>
