<svg width="54" height="54" viewBox="0 0 54 54" fill="none" xmlns="http://www.w3.org/2000/svg">
<g clip-path="url(#clip0)">
<path d="M31.8371 2.13367C24.1112 2.13367 17.3097 5.61076 13.343 10.8816L40.5467 39.5481C48.457 36.5723 54 29.6669 54 21.6225C54 10.8591 44.0773 2.13367 31.8371 2.13367Z" fill="#8D9CA8"/>
<path d="M44.2664 28.7474C44.2664 17.9985 34.357 9.28467 22.1331 9.28467C9.90932 9.28467 0 17.9984 0 28.7474C0 37.373 6.3816 44.6868 15.219 47.2403L13.8903 51.3121C13.7832 51.6406 14.0943 51.9518 14.4229 51.8446L27.0253 47.7322C36.895 45.7739 44.2664 38.018 44.2664 28.7474Z" fill="#D8ECFE"/>
<path d="M31.8371 2.13367C24.1112 2.13367 17.3097 5.61076 13.343 10.8816C27.8919 5.33876 44.2664 14.727 44.2664 28.7475C44.2664 32.7438 42.8957 36.4578 40.5467 39.5481C48.457 36.5723 54 29.6669 54 21.6225C54 10.8591 44.0773 2.13367 31.8371 2.13367Z" fill="#8D9CA8"/>
<path d="M22.1333 31.6122C23.6448 31.6122 24.8701 30.3868 24.8701 28.8754C24.8701 27.3639 23.6448 26.1385 22.1333 26.1385C20.6218 26.1385 19.3965 27.3639 19.3965 28.8754C19.3965 30.3868 20.6218 31.6122 22.1333 31.6122Z" fill="#7A8C98"/>
<path d="M11.0055 31.6122C12.517 31.6122 13.7423 30.3868 13.7423 28.8754C13.7423 27.3639 12.517 26.1385 11.0055 26.1385C9.49399 26.1385 8.26868 27.3639 8.26868 28.8754C8.26868 30.3868 9.49399 31.6122 11.0055 31.6122Z" fill="#7A8C98"/>
<path d="M33.261 31.6122C34.7725 31.6122 35.9978 30.3868 35.9978 28.8754C35.9978 27.3639 34.7725 26.1385 33.261 26.1385C31.7495 26.1385 30.5242 27.3639 30.5242 28.8754C30.5242 30.3868 31.7495 31.6122 33.261 31.6122Z" fill="#7A8C98"/>
<path d="M28.0959 10C35.4769 13.1553 40.5648 19.8117 40.5648 27.5135C40.5648 36.7841 33.1934 44.54 23.3237 46.4983L14.5243 49.3697L13.8905 51.3121C13.7833 51.6406 14.0945 51.9519 14.423 51.8446L27.0255 47.7323C36.8951 45.7741 44.2665 38.0182 44.2665 28.7475C44.2664 19.8151 37.4232 12.2891 28.0959 10Z" fill="#C4E2FF"/>
</g>
<defs>
<clipPath id="clip0">
<rect width="54" height="54" fill="white"/>
</clipPath>
</defs>
</svg>
