<svg width="54" height="54" viewBox="0 0 54 54" fill="none" xmlns="http://www.w3.org/2000/svg">
<path d="M43.6355 26.3387H32.3716C29.7568 26.3387 27.6371 24.219 27.6371 21.6043V14.6444C27.6371 8.91911 32.2783 4.27795 38.0035 4.27795C43.7288 4.27795 48.3699 8.91921 48.3699 14.6444V21.6043C48.37 24.219 46.2503 26.3387 43.6355 26.3387Z" fill="#FCA62F"/>
<path d="M36.5219 11.2443C36.0681 11.2443 35.7001 10.8763 35.7001 10.4225V9.17753C35.7001 8.72369 36.0681 8.35571 36.5219 8.35571C36.9758 8.35571 37.3438 8.72369 37.3438 9.17753V10.4225C37.3438 10.8764 36.9758 11.2443 36.5219 11.2443Z" fill="#FB9927"/>
<path d="M48.3698 14.6441V21.6047C48.3698 24.2187 46.2501 26.3384 43.635 26.3384H40.6906C43.3057 26.3384 45.4254 24.2187 45.4254 21.6047V14.6441C45.4254 11.7818 44.2646 9.18983 42.389 7.31428C40.8407 5.766 38.8052 4.70519 36.5314 4.38193C37.0127 4.31285 37.5041 4.27783 38.0035 4.27783C40.8658 4.27783 43.4578 5.43873 45.3334 7.31428C47.2099 9.18983 48.3698 11.7818 48.3698 14.6441Z" fill="#FB9927"/>
<path d="M46.0618 17.3106H44.4512C43.9974 17.3106 43.6294 16.9426 43.6294 16.4888C43.6294 16.035 43.9974 15.667 44.4512 15.667H46.0618C46.5156 15.667 46.8836 16.035 46.8836 16.4888C46.8836 16.9426 46.5156 17.3106 46.0618 17.3106Z" fill="#F98824"/>
<path d="M53.1786 44.2461H22.8283L24.6462 34.7557L33.3268 31.9594C33.5262 34.3667 35.5446 36.258 38.0035 36.258C40.4624 36.258 42.4807 34.3668 42.6802 31.9594L47.4905 33.5088C49.877 34.278 51.6532 36.2865 52.1255 38.7487L53.1786 44.2461Z" fill="#BCEA73"/>
<path d="M43.4669 32.213C43.2647 35.0535 40.8957 37.2946 38.0036 37.2946C35.1115 37.2946 32.7425 35.0534 32.5403 32.213L38.0036 30.4532L43.4669 32.213Z" fill="#FFCEC0"/>
<path d="M53.1786 44.2461H49.9373L48.7156 37.8688C48.2751 35.5655 46.7772 33.6305 44.7095 32.6135L47.4905 33.5087C49.877 34.2779 51.6532 36.2865 52.1255 38.7497L53.1786 44.2461Z" fill="#99D53B"/>
<path d="M23.0383 43.1503L21.7781 49.728H52.9034C53.5912 49.728 54.109 49.1017 53.9796 48.4261L52.9688 43.1503H23.0383Z" fill="#EDF9DA"/>
<path d="M49.7278 43.1503L50.9879 49.7282H52.9038C53.5917 49.7282 54.1094 49.1019 53.98 48.4262L52.9691 43.1503H49.7278Z" fill="#D2F0A2"/>
<path d="M34.9648 25.7108H41.0422V33.1656H34.9648V25.7108Z" fill="#FFCEC0"/>
<path d="M41.0422 25.7108V30.3086C40.1043 30.69 39.0783 30.8999 38.0036 30.8999C36.9288 30.8999 35.9028 30.69 34.9649 30.3086V25.7108H41.0422Z" fill="#FDB0A0"/>
<path d="M42.6857 31.9605V32.7122C42.6857 33.1658 42.3175 33.534 41.8639 33.534C41.4102 33.534 41.0421 33.1658 41.0421 32.7122V31.4313L42.6857 31.9605Z" fill="#FDB0A0"/>
<path d="M34.9649 31.4313V32.7122C34.9649 33.1658 34.5967 33.534 34.1431 33.534C33.6895 33.534 33.3213 33.1658 33.3213 32.7122V31.9605L34.9649 31.4313Z" fill="#FDB0A0"/>
<path d="M46.8522 21.0718C48.0414 21.0718 49.0053 20.1078 49.0053 18.9188C49.0053 17.7297 48.0413 16.7657 46.8522 16.7657H45.4254V21.0719H46.8522V21.0718Z" fill="#FDB0A0"/>
<path d="M29.1549 21.0718C27.9657 21.0718 27.0018 20.1078 27.0018 18.9188C27.0018 17.7297 27.9658 16.7657 29.1549 16.7657H30.5818V21.0719H29.1549V21.0718Z" fill="#FDB0A0"/>
<path d="M38.0036 9.61096C33.5531 9.61096 29.9454 13.2187 29.9454 17.6692V20.6699C29.9454 24.7932 33.5531 28.6248 38.0036 28.6248C42.4541 28.6248 46.0618 24.7932 46.0618 20.6699V17.6692C46.0618 13.2188 42.4541 9.61096 38.0036 9.61096Z" fill="#FFCEC0"/>
<path d="M34.7723 19.8213C34.3184 19.8213 33.9504 19.4533 33.9504 18.9995V18.3708C33.9504 17.9169 34.3184 17.549 34.7723 17.549C35.2261 17.549 35.5941 17.9169 35.5941 18.3708V18.9995C35.5941 19.4533 35.2261 19.8213 34.7723 19.8213Z" fill="#873F30"/>
<path d="M41.235 19.8213C40.7811 19.8213 40.4131 19.4533 40.4131 18.9995V18.3708C40.4131 17.9169 40.7811 17.549 41.235 17.549C41.6888 17.549 42.0568 17.9169 42.0568 18.3708V18.9995C42.0568 19.4533 41.6888 19.8213 41.235 19.8213Z" fill="#873F30"/>
<path d="M46.061 17.6336H42.5882C39.6919 17.6336 37.344 15.2857 37.344 12.3895V9.63821C37.5612 9.62017 37.7814 9.61121 38.0035 9.61121C42.442 9.61121 46.042 13.2 46.061 17.6336Z" fill="#FDB0A0"/>
<path d="M46.5152 15.6672H42.5885C39.6919 15.6672 37.3438 13.319 37.3438 10.4225V8.72437H40.2206C43.6969 8.72437 46.5152 11.5425 46.5152 15.0189V15.6672Z" fill="#FCA62F"/>
<path d="M46.5154 15.0184V15.667H45.4254V14.6441C45.4254 13.1459 45.1072 11.7227 44.5357 10.4368C45.7547 11.5836 46.5154 13.213 46.5154 15.0184Z" fill="#FB9927"/>
<path d="M24.8446 21.0656C26.0338 21.0656 26.9976 20.1016 26.9976 18.9126C26.9976 17.7234 26.0337 16.7595 24.8446 16.7595H23.4177V21.0657H24.8446V21.0656Z" fill="#6C3328"/>
<path d="M7.1473 21.0656C5.95814 21.0656 4.99426 20.1016 4.99426 18.9126C4.99426 17.7234 5.95825 16.7595 7.1473 16.7595H8.57419V21.0657H7.1473V21.0656Z" fill="#6C3328"/>
<path d="M19.0306 49.7216V42.8424H12.9623V49.7216H1.09612C0.40825 49.7216 -0.109497 49.0952 0.0199136 48.4196L1.87427 38.7432C2.34539 36.2799 4.12275 34.2714 6.5093 33.5022L11.3186 31.9528C11.518 34.3602 13.5364 36.2515 15.9963 36.2515C18.4552 36.2515 20.4736 34.3602 20.673 31.9528L25.4833 33.5022C27.8688 34.2714 29.6461 36.2799 30.1184 38.7432L31.9718 48.4197C32.1012 49.0952 31.5834 49.7216 30.8956 49.7216H19.0306Z" fill="#20B69F"/>
<path d="M11.0745 35.6403L10.9064 34.9922C10.6982 34.1897 9.8788 33.7079 9.07629 33.9161L4.14014 35.1967C3.28732 35.418 2.77538 36.2887 2.99665 37.1415L3.53507 39.2167C3.74885 40.0407 4.59007 40.5353 5.4141 40.3216L8.02709 39.6437C8.85101 39.4299 9.34576 38.5887 9.13198 37.7647L9.07249 37.5355L10.12 37.2637C10.8318 37.079 11.2592 36.3523 11.0745 35.6403Z" fill="#17998C"/>
<path d="M30.8962 49.7219H28.9803L26.7085 37.8625C26.2671 35.5586 24.7689 33.623 22.7003 32.6063L25.4825 33.503C27.8694 34.2717 29.6458 36.2802 30.1182 38.7432L31.9724 48.42C32.102 49.0955 31.5841 49.7219 30.8962 49.7219Z" fill="#17998C"/>
<path d="M21.4592 32.2066C21.2571 35.0471 18.888 37.2882 15.9959 37.2882C13.1037 37.2882 10.7347 35.047 10.5325 32.2066L15.9959 30.4469L21.4592 32.2066Z" fill="#873F30"/>
<path d="M12.9572 25.7045H19.0346V33.1593H12.9572V25.7045Z" fill="#873F30"/>
<path d="M19.0346 25.7045V30.3024C18.0967 30.6838 17.0707 30.8937 15.996 30.8937C14.9213 30.8937 13.8953 30.6838 12.9573 30.3024V25.7045H19.0346Z" fill="#6C3328"/>
<path d="M20.6785 31.955V32.7056C20.6785 33.1604 20.3103 33.5275 19.8567 33.5275C19.403 33.5275 19.0349 33.1604 19.0349 32.7056V31.4258L20.6785 31.955Z" fill="#6C3328"/>
<path d="M12.9567 31.4268V32.7055C12.9567 33.1602 12.5896 33.5273 12.1349 33.5273C11.6812 33.5273 11.313 33.1602 11.313 32.7055V31.956L12.9567 31.4268Z" fill="#6C3328"/>
<path d="M15.996 9.10425C11.5456 9.10425 7.93768 12.7121 7.93768 17.1626V20.6637C7.93768 24.787 11.5456 28.6186 15.996 28.6186C20.4465 28.6186 24.0544 24.787 24.0544 20.6637V17.1626C24.0544 12.712 20.4465 9.10425 15.996 9.10425Z" fill="#873F30"/>
<path d="M12.7647 19.8148C12.3108 19.8148 11.9429 19.4468 11.9429 18.993V18.3643C11.9429 17.9105 12.3108 17.5425 12.7647 17.5425C13.2185 17.5425 13.5865 17.9105 13.5865 18.3643V18.993C13.5865 19.4469 13.2185 19.8148 12.7647 19.8148Z" fill="#6C3328"/>
<path d="M19.2274 19.8148C18.7736 19.8148 18.4056 19.4468 18.4056 18.993V18.3643C18.4056 17.9105 18.7736 17.5425 19.2274 17.5425C19.6812 17.5425 20.0492 17.9105 20.0492 18.3643V18.993C20.0492 19.4469 19.6812 19.8148 19.2274 19.8148Z" fill="#6C3328"/>
<path d="M24.0545 17.1548C23.9164 17.1508 23.7783 17.1358 23.6421 17.1128C21.6775 16.7726 18.605 16.5443 15.9959 16.5443C13.3868 16.5443 10.3143 16.7725 8.34976 17.1128C8.2136 17.1358 8.07554 17.1508 7.93738 17.1548C7.94139 12.7082 11.5483 9.10437 15.9958 9.10437C20.4433 9.10437 24.0505 12.7082 24.0545 17.1548Z" fill="#6C3328"/>
<path d="M24.4598 12.5919C24.4455 7.99446 20.6619 4.27173 15.996 4.27173C11.33 4.27173 7.54634 7.99446 7.5321 12.5919H24.4598Z" fill="#E01058"/>
<path d="M24.4598 12.5918H21.4213C21.4093 8.5055 18.4179 5.11078 14.4767 4.4072C14.9692 4.31808 15.4775 4.27209 15.9959 4.27209C20.6617 4.27209 24.4458 7.99409 24.4598 12.5918Z" fill="#CF0E50"/>
<path d="M6.84223 14.0581C6.81354 14.6952 7.38033 15.1988 8.00861 15.0899C10.1663 14.7164 13.3553 14.4919 15.996 14.4919C18.6366 14.4919 21.8258 14.7164 23.9833 15.0899C24.6116 15.1987 25.1784 14.6952 25.1497 14.0581L25.0568 11.994C25.0366 11.5457 24.721 11.1656 24.2838 11.0638C22.0622 10.5469 19.4114 10.2305 15.996 10.2305C12.5806 10.2305 9.92972 10.5469 7.70802 11.0639C7.27086 11.1657 6.95529 11.5458 6.93504 11.9941L6.84223 14.0581Z" fill="#FB1466"/>
<path d="M25.1493 14.058C25.1783 14.6955 24.6118 15.1989 23.9833 15.0898C23.5239 15.0107 23.0176 14.9377 22.4801 14.8726C22.7463 14.6765 22.9175 14.3552 22.9004 13.992L22.8043 11.496C22.7893 11.1627 22.6161 10.8655 22.3509 10.6863C23.0324 10.7953 23.674 10.9215 24.2835 11.0635C24.7209 11.1656 25.0361 11.546 25.0571 11.9943L25.1493 14.058Z" fill="#E01058"/>
<path d="M10.4672 12.8811V14.7669C9.89079 14.8239 9.3375 14.8897 8.82355 14.9619V12.8811C8.82355 12.4275 9.19058 12.0593 9.64536 12.0593C10.099 12.0593 10.4672 12.4274 10.4672 12.8811Z" fill="#E01058"/>
<path d="M13.6339 12.4943V14.5456C13.0859 14.5686 12.5337 14.6003 11.9902 14.6387V12.4943C11.9902 12.0395 12.3584 11.6725 12.812 11.6725C13.2668 11.6725 13.6339 12.0395 13.6339 12.4943Z" fill="#E01058"/>
<path d="M23.1692 12.8811V14.9619C22.6552 14.8896 22.102 14.8249 21.5256 14.7669V12.8811C21.5256 12.4275 21.8938 12.0593 22.3474 12.0593C22.801 12.0593 23.1692 12.4274 23.1692 12.8811Z" fill="#E01058"/>
<path d="M23.1692 12.8811V14.9631C22.9468 14.9313 22.7167 14.9017 22.48 14.8732C22.7463 14.676 22.9171 14.355 22.9008 13.9923L22.8317 12.2183C23.0365 12.3672 23.1692 12.6093 23.1692 12.8811Z" fill="#CF0E50"/>
<path d="M20.0014 12.4943V14.6387C19.4579 14.6003 18.9056 14.5686 18.3577 14.5456V12.4943C18.3577 12.0395 18.7259 11.6725 19.1795 11.6725C19.6332 11.6725 20.0014 12.0395 20.0014 12.4943Z" fill="#E01058"/>
<path d="M16.8182 12.4231V14.4985C16.5399 14.4941 16.2649 14.492 15.9964 14.492C15.728 14.492 15.453 14.4942 15.1746 14.4985V12.4231C15.1746 11.9695 15.5417 11.6013 15.9964 11.6013C16.4501 11.6013 16.8182 11.9695 16.8182 12.4231Z" fill="#E01058"/>
<path d="M7.4408 31.9685L8.3203 35.3587L10.1201 34.8918C10.832 34.7071 11.2594 33.9803 11.0747 33.2684L10.9066 32.6203C10.6984 31.8178 9.87902 31.336 9.07651 31.5442L7.4408 31.9685Z" fill="#FDB0A0"/>
<path d="M2.99671 34.7694L3.53513 36.8446C3.74891 37.6686 4.59013 38.1632 5.41416 37.9494L8.02715 37.2716C8.85118 37.0578 9.34583 36.2166 9.13204 35.3926L8.19305 31.7732L4.14031 32.8246C3.28738 33.0459 2.77544 33.9165 2.99671 34.7694Z" fill="#FFCEC0"/>
<path d="M11.8665 43.7234H20.1263V49.7281H11.8665V43.7234Z" fill="#F8F3F1"/>
<path d="M20.126 44.8187V42.8427C20.126 42.2375 19.6355 41.7469 19.0303 41.7469H12.9617C12.3566 41.7469 11.866 42.2375 11.866 42.8427V44.8187H20.126Z" fill="#FB1466"/>
</svg>
