<svg width="54" height="54" viewBox="0 0 54 54" fill="none" xmlns="http://www.w3.org/2000/svg">
<g clip-path="url(#clip0)">
<path d="M41.4319 0H8.26679C7.10526 0 6.16016 0.945 6.16016 2.10663V42.1353C6.16016 43.2969 7.10516 44.2419 8.26679 44.2419H10.3985C10.5447 44.2419 10.6842 44.1813 10.784 44.0744L43.4266 9.11345C43.5177 9.01578 43.5684 8.88711 43.5684 8.75359V2.13659C43.5686 0.9585 42.6101 0 41.4319 0V0Z" fill="#FF6986"/>
<path d="M47.8397 13.0243V45.8262C47.8397 46.9884 46.8947 47.9334 45.7334 47.9334H11.9782C10.8159 47.9334 9.87091 46.9884 9.87091 45.8262V6.06129C9.87091 4.90008 10.8159 3.95508 11.9782 3.95508H38.7693L39.7439 4.92961L47.8397 13.0243Z" fill="#D9F9F8"/>
<path d="M47.8397 13.0244V45.8262C47.8397 46.9885 46.8947 47.9335 45.7334 47.9335H11.9782C10.8159 47.9335 9.87091 46.9885 9.87091 45.8262V45.2967H43.5471C44.7231 45.2967 45.6765 44.3433 45.6765 43.1663V13.0244L39.7439 4.92963L47.8397 13.0244Z" fill="#C1EAF4"/>
<path d="M47.8397 13.0243H45.6766L39.4634 13.0233C39.0805 13.0233 38.7694 12.7132 38.7694 12.3293V3.95508C38.9097 3.95508 39.0436 4.00992 39.1428 4.10906L47.6857 12.652C47.7849 12.7512 47.8397 12.8851 47.8397 13.0243Z" fill="#AEC9D6"/>
<path d="M47.8397 13.0243H45.6765L39.1428 4.10907L47.6857 12.652C47.7849 12.7512 47.8397 12.8851 47.8397 13.0243Z" fill="#8FB2BC"/>
<path d="M19.4135 20.0872H38.3369C38.7737 20.0872 39.1279 19.7331 39.1279 19.2961C39.1279 18.8592 38.7737 18.5051 38.3369 18.5051H19.4135C18.9766 18.5051 18.6224 18.8592 18.6224 19.2961C18.6224 19.7331 18.9766 20.0872 19.4135 20.0872Z" fill="#AEC9D6"/>
<path d="M38.3369 23.1703H19.4135C18.9766 23.1703 18.6224 23.5243 18.6224 23.9613C18.6224 24.3983 18.9766 24.7523 19.4135 24.7523H38.3369C38.7737 24.7523 39.1279 24.3983 39.1279 23.9613C39.1279 23.5243 38.7737 23.1703 38.3369 23.1703Z" fill="#AEC9D6"/>
<path d="M38.3369 27.9283H34.5983C34.1615 27.9283 33.8073 28.2824 33.8073 28.7194C33.8073 29.1563 34.1615 29.5104 34.5983 29.5104H38.3369C38.7737 29.5104 39.1279 29.1563 39.1279 28.7194C39.1279 28.2824 38.7737 27.9283 38.3369 27.9283Z" fill="#AEC9D6"/>
<path d="M30.8756 27.9283H19.4135C18.9766 27.9283 18.6224 28.2824 18.6224 28.7194C18.6224 29.1563 18.9766 29.5104 19.4135 29.5104H30.8756C31.3124 29.5104 31.6666 29.1563 31.6666 28.7194C31.6666 28.2824 31.3124 27.9283 30.8756 27.9283Z" fill="#AEC9D6"/>
<path d="M38.8105 44.0659C38.8105 49.5429 34.3534 54 28.8753 54C28.4471 54 28.0253 53.9726 27.6118 53.9198H27.6076C22.7255 53.2944 18.9402 49.1136 18.9402 44.0659C18.9402 39.0171 22.7255 34.8363 27.6076 34.2109H27.6118C28.0253 34.1582 28.4471 34.1307 28.8753 34.1307C34.3534 34.1307 38.8105 38.5878 38.8105 44.0659Z" fill="#FF6986"/>
<path d="M38.8106 44.0659C38.8106 49.5429 34.3534 54 28.8754 54C28.4472 54 28.0253 53.9726 27.6119 53.9198C32.494 53.2944 36.2793 49.1136 36.2793 44.0659C36.2793 39.0171 32.494 34.8363 27.6119 34.2109C28.0253 34.1582 28.4472 34.1307 28.8754 34.1307C34.3534 34.1307 38.8106 38.5878 38.8106 44.0659Z" fill="#EA3487"/>
<path d="M32.8937 43.3053C32.5848 43.6143 32.0839 43.6142 31.7751 43.3054L29.6663 41.1967V48.8438C29.6663 49.2808 29.3122 49.6349 28.8753 49.6349C28.4384 49.6349 28.0843 49.2808 28.0843 48.8438V41.1967L25.9755 43.3054C25.6666 43.6142 25.1657 43.6143 24.8569 43.3053C24.548 42.9963 24.548 42.4955 24.8569 42.1867L28.316 38.7277C28.4704 38.5733 28.6729 38.4961 28.8753 38.4961C29.0777 38.4961 29.2802 38.5733 29.4346 38.7277L32.8937 42.1867C33.2026 42.4955 33.2026 42.9963 32.8937 43.3053Z" fill="white"/>
</g>
<defs>
<clipPath id="clip0">
<rect width="54" height="54" fill="white"/>
</clipPath>
</defs>
</svg>
