<svg width="25" height="25" viewBox="0 0 25 25" fill="none" xmlns="http://www.w3.org/2000/svg">
<g clip-path="url(#clip0)">
<path d="M3.57138 8.03557H8.03568C8.52882 8.03557 8.92857 8.43532 8.92857 8.92846C8.92857 9.42159 8.52882 9.82134 8.03568 9.82134H3.57138C3.07825 9.82134 2.6785 10.2211 2.6785 10.7142V22.3215C2.6785 22.8146 3.07825 23.2143 3.57138 23.2143H21.4286C21.9218 23.2143 22.3215 22.8146 22.3215 22.3215V10.7142C22.3215 10.221 21.9218 9.82129 21.4286 9.82129H16.9643C16.4712 9.82129 16.0715 9.42154 16.0715 8.9284C16.0715 8.43527 16.4712 8.03552 16.9643 8.03552H21.4286C22.908 8.03552 24.1072 9.23477 24.1072 10.7141V22.3214C24.1072 23.8007 22.908 25 21.4286 25H3.57138C2.09204 25 0.892792 23.8007 0.892792 22.3214V10.7142C0.892792 9.23482 2.09204 8.03557 3.57138 8.03557Z" fill="white"/>
<path d="M7.40441 4.72574L11.8687 0.261437C12.2174 -0.0871458 12.7826 -0.0871458 13.1312 0.261437L17.5956 4.72574C17.9381 5.08044 17.9283 5.64567 17.5736 5.98824C17.2276 6.32243 16.679 6.32243 16.333 5.98824L13.3928 3.04801V17.8571C13.3928 18.3503 12.993 18.75 12.4999 18.75C12.0068 18.75 11.607 18.3503 11.607 17.8571V3.04806L8.66681 5.98829C8.3121 6.33085 7.74687 6.32102 7.40431 5.96632C7.07022 5.6203 7.07022 5.07176 7.40441 4.72574Z" fill="white"/>
</g>
<defs>
<clipPath id="clip0">
<rect width="25" height="25" fill="white" transform="matrix(-1 0 0 1 25 0)"/>
</clipPath>
</defs>
</svg>
